<svg xmlns="http://www.w3.org/2000/svg" width="360" height="150" viewBox="0 0 360 150">
  <g id="Group_3739" data-name="Group 3739" transform="translate(-714 -240)">
    <rect id="Rectangle_808" data-name="Rectangle 808" width="360" height="150" transform="translate(714 240)" fill="#fff"/>
    <g id="Group_2042" data-name="Group 2042" transform="translate(798 259)">
      <g id="Group_2041" data-name="Group 2041" transform="translate(15.718)">
        <path id="Path_3404" data-name="Path 3404" d="M431.267,421.051H454.6a12.785,12.785,0,0,1-5.008-6.929s-1.548-3.508-.1-11.274l14.55-89-4.618,2.337-82.82,93h5.881l75.2-85.771-14.467,80.4s-1.25,6.7-3.175,9.784a22.946,22.946,0,0,1-8.779,7.455Z" transform="translate(-376.605 -313.849)" fill="#2cb44e"/>
        <path id="Path_3405" data-name="Path 3405" d="M403.046,345.808a7.934,7.934,0,0,1-3.82,1.368c-2.421,0-3.228-2.079-1.868-5.315,1.215-2.877,3.666-5.39,6.477-5.39a2.374,2.374,0,0,1,2.315,1.456l.11-.026a12.96,12.96,0,0,1,.873-1.3,5.873,5.873,0,0,0-2.96-.776,9.334,9.334,0,0,0-8.28,5.959c-1.557,3.7-.531,6.043,2.842,6.043a7.823,7.823,0,0,0,3.789-.96l.522-1.061Z" transform="translate(-313.714 -239.448)" fill="#2cb44e"/>
        <path id="Path_3406" data-name="Path 3406" d="M405.516,339.5c.807-1.921.329-2.841-1.285-2.841a5.96,5.96,0,0,0-2.846.921l-.4.943h.171a3.191,3.191,0,0,1,2.315-1.162c1.145,0,1.478.728.952,1.978-.338.807-.794.917-2.1,1.131-1.548.25-3.048.5-3.855,2.429-.531,1.241.079,2.052,1.171,2.052a4.447,4.447,0,0,0,2.706-1.061l.206-.149c-.3,1,.3,1.136,1.166.982a3.9,3.9,0,0,0,.526-.171l.154-.377c-1,.219-.807-.11-.531-.767l1.649-3.907Zm-2.732,3.592a3.425,3.425,0,0,1-.631.513,3.127,3.127,0,0,1-1.5.64c-.939,0-1.285-.517-.837-1.583.653-1.535,2.28-1.706,3.412-1.925l.587-.11-1.035,2.464Z" transform="translate(-303.248 -236.642)" fill="#2cb44e" fill-rule="evenodd"/>
        <path id="Path_3407" data-name="Path 3407" d="M404.641,336.7l-.7,1.671h-.951a2.014,2.014,0,0,1-.272.631h.952l-2.07,4.912c-.947,2.07-.522,2.648.649,2.648a4.466,4.466,0,0,0,1.4-.294l.175-.412a3.959,3.959,0,0,1-.741.127c-1.272,0-.412-1.71.022-2.728l1.78-4.254h1.627a1.907,1.907,0,0,1,.267-.631h-1.623l.921-2.2-1.443.526Z" transform="translate(-293.743 -238.26)" fill="#2cb44e" fill-rule="evenodd"/>
        <path id="Path_3408" data-name="Path 3408" d="M408.843,343.089a5.3,5.3,0,0,1-2.758,1.153c-1.855,0-2.109-1.613-1.166-3.508h2.153c1.022,0,2.057.022,3.087.048,1.333-2.815.333-4.126-1.364-4.126-2.285,0-4.267,1.807-5.258,4.148-1.1,2.622-.25,4.144,1.864,4.144a6.415,6.415,0,0,0,3.048-.987l.395-.873Zm-3.666-2.969c.684-1.43,1.951-2.947,3.39-2.947,1.513,0,1.272,1.469.68,2.947Z" transform="translate(-287.065 -236.642)" fill="#2cb44e" fill-rule="evenodd"/>
        <path id="Path_3409" data-name="Path 3409" d="M405.671,344.821c.206-.018.421-.053.636-.053.193,0,.368.035.583.053l1.842-4.368a4.691,4.691,0,0,1,1.473-2.144,1.942,1.942,0,0,1,1.162-.425c.255,0,.4.2.6.272l.811-1.416a.724.724,0,0,0-.439-.083,4.5,4.5,0,0,0-2.6,1.579l-.162.2.715-1.68c-.237.013-.439.057-.636.057-.219,0-.395-.044-.588-.057l-3.4,8.065Z" transform="translate(-278.21 -236.642)" fill="#2cb44e" fill-rule="evenodd"/>
        <path id="Path_3410" data-name="Path 3410" d="M412.506,339.573c-.241.013-.434.057-.636.057s-.4-.044-.588-.057l-3.394,8.065c.206-.018.417-.053.627-.053s.368.035.588.053l3.4-8.065Zm1.381-2.9c.2-.461,0-.851-.417-.851a1.439,1.439,0,0,0-1.145.851c-.2.487-.009.873.421.873a1.415,1.415,0,0,0,1.14-.873Z" transform="translate(-270.705 -239.458)" fill="#2cb44e" fill-rule="evenodd"/>
        <path id="Path_3411" data-name="Path 3411" d="M409.763,344.821c.206-.018.425-.053.636-.053.193,0,.364.035.588.053l1.649-3.916c.877-2.079,1.82-3.364,3.425-3.364,1.438,0,1.184,1.219.522,2.793l-1.9,4.486c.215-.018.43-.053.64-.053.193,0,.364.035.592.053l2.052-4.881c.934-2.228.7-3.284-1.079-3.284a4.508,4.508,0,0,0-3.153,1.627l.649-1.526c-.237.013-.434.057-.627.057-.219,0-.4-.044-.6-.057l-3.4,8.065Z" transform="translate(-264.357 -236.642)" fill="#2cb44e" fill-rule="evenodd"/>
        <path id="Path_3412" data-name="Path 3412" d="M416.714,344.694c1.153,0,2.2.114,1.465,1.868a3.605,3.605,0,0,1-3.329,2.153c-1.272,0-1.921-.662-1.346-2.043a3.093,3.093,0,0,1,3.21-1.978Zm6.6-7.994a3.568,3.568,0,0,1-1.114.044l-2.087-.083a4.081,4.081,0,0,0-4.219,2.679c-.535,1.25-.254,1.943.461,2.425a2.6,2.6,0,0,0-1.662,1.443c-.439,1.031-.048,1.276.36,1.364l-.057.136a3.236,3.236,0,0,0-2.46,2.044c-.741,1.78.474,2.473,1.728,2.473a5.708,5.708,0,0,0,5.289-3.32c.605-1.425.105-2.245-1.7-2.245h-.982c-.916,0-1.421-.11-1.123-.807a1.269,1.269,0,0,1,1.434-.807,4.5,4.5,0,0,0,4.363-2.618,2.173,2.173,0,0,0-.114-2.236l1.613.162.272-.653Zm-6.258,2.627a3.211,3.211,0,0,1,2.662-2.219c1.206,0,1.219,1,.671,2.3a3.287,3.287,0,0,1-2.631,2.21c-1.114,0-1.25-1.1-.7-2.289Z" transform="translate(-255.723 -236.646)" fill="#2cb44e" fill-rule="evenodd"/>
        <path id="Path_3413" data-name="Path 3413" d="M408.554,330.39h-.434L394.267,352.8c.219-.018.452-.088.7-.088.228,0,.412.07.666.088,1.6-3,3.285-5.819,4.951-8.656H405.4c-.285,2.921-.689,6-1.087,8.656.342-.018.684-.088,1.044-.088.325,0,.61.07.952.088l2.245-22.409Zm-2.969,12.419h-4.175l4.973-8.2-.8,8.2Z" transform="translate(-316.815 -257.854)" fill="#2cb44e" fill-rule="evenodd"/>
        <path id="Path_3414" data-name="Path 3414" d="M398.586,344.378c-.364.789-.8,1.561-1.237,2.333a2.391,2.391,0,0,0,2.009,1.031c1.68,0,4.074-1.631,5.293-5.065,1.811-5.126-3.434-2.956-1.987-7.06.618-1.732,1.723-2.653,2.671-2.653.706,0,.986,1.052.864,2.109h.167c.394-.772.811-1.53,1.263-2.272a2.152,2.152,0,0,0-1.842-.837c-1.71,0-3.688,1.671-4.776,4.745-1.987,5.609,3.491,2.793,1.96,7.117-.605,1.7-1.969,2.92-2.894,2.92-.89,0-1.329-1.127-1.342-2.368Z" transform="translate(-306.382 -252.529)" fill="#2cb44e" fill-rule="evenodd"/>
        <path id="Path_3415" data-name="Path 3415" d="M406.165,337.5a6.171,6.171,0,0,1-.785.092,4.226,4.226,0,0,1-.728-.092l-5.42,15.322c.254-.017.522-.088.789-.088.246,0,.456.07.724.088l5.42-15.322Zm2.157-5.486c.325-.895.118-1.627-.386-1.627-.539,0-1.232.732-1.557,1.627s-.132,1.632.395,1.632c.509,0,1.228-.728,1.548-1.632Z" transform="translate(-300.007 -257.874)" fill="#2cb44e" fill-rule="evenodd"/>
        <path id="Path_3416" data-name="Path 3416" d="M410.056,337.348c1.285-3.622.824-5.385-1.171-5.385a6.383,6.383,0,0,0-3.67,1.763l-.64,1.8h.215c.382-.706,1.653-2.21,3.035-2.21,1.425,0,1.732,1.373.89,3.736-.544,1.548-1.127,1.737-2.762,2.166-1.96.469-3.859.956-5.148,4.609-.842,2.368-.21,3.916,1.136,3.916,1.136,0,2.249-.68,3.521-2.026l.272-.281c-.513,1.894.206,2.149,1.3,1.859a3.506,3.506,0,0,0,.68-.333l.259-.7c-1.272.417-.991-.219-.548-1.465l2.636-7.446Zm-3.934,6.832a5.664,5.664,0,0,1-.868.987,3.684,3.684,0,0,1-1.947,1.224c-1.153,0-1.5-1-.789-3.008,1.031-2.92,3.078-3.236,4.512-3.661l.746-.219-1.653,4.679Z" transform="translate(-295.978 -252.529)" fill="#2cb44e" fill-rule="evenodd"/>
        <path id="Path_3417" data-name="Path 3417" d="M408.977,342.37a7.8,7.8,0,0,0,2.583-.066c2.991-.895,5-2.662,6.376-6.539s.645-5.267-3.035-5.267h-3.4L403.75,352.43c.272-.017.579-.088.86-.088s.513.07.8.088l3.565-10.06Zm3.758-10.608a12.347,12.347,0,0,1,2.723.022c1.412.228,1.447,1.952.675,4.144-1.013,2.846-2.824,4.872-4.837,5.2a6.662,6.662,0,0,1-1.877,0l3.315-9.362Z" transform="translate(-284.713 -257.485)" fill="#2cb44e" fill-rule="evenodd"/>
        <path id="Path_3418" data-name="Path 3418" d="M415.879,337.348c1.276-3.622.82-5.385-1.167-5.385a6.4,6.4,0,0,0-3.684,1.763l-.636,1.8h.211c.377-.706,1.653-2.21,3.039-2.21,1.425,0,1.732,1.373.89,3.736-.544,1.548-1.127,1.737-2.771,2.166-1.952.469-3.85.956-5.144,4.609-.838,2.368-.206,3.916,1.14,3.916,1.14,0,2.25-.68,3.521-2.026l.276-.281c-.522,1.894.2,2.149,1.289,1.859a3.386,3.386,0,0,0,.68-.333l.259-.7c-1.267.417-.987-.219-.544-1.465l2.64-7.446Zm-3.938,6.832a5.855,5.855,0,0,1-.868.987,3.684,3.684,0,0,1-1.947,1.224c-1.154,0-1.509-1-.794-3.008,1.035-2.92,3.087-3.236,4.521-3.661l.741-.219-1.653,4.679Z" transform="translate(-276.287 -252.529)" fill="#2cb44e" fill-rule="evenodd"/>
        <path id="Path_3419" data-name="Path 3419" d="M419.71,333.287a2.7,2.7,0,0,0-2.53-1.324c-2.833,0-5.924,2.855-7.678,7.823-1.6,4.49-1.131,7.955,2.035,7.955A5.544,5.544,0,0,0,415,346.127l.614-1.469-.075-.092c-1.228,1.21-2.259,2.083-3.359,2.083-2.065,0-2.421-2.916-.961-7.021,1.193-3.372,3.39-6.573,5.587-6.573a1.454,1.454,0,0,1,1.421,1.289,4.688,4.688,0,0,1,.145,1.044h.14l1.193-2.1Z" transform="translate(-268.266 -252.529)" fill="#2cb44e"/>
        <path id="Path_3420" data-name="Path 3420" d="M417.566,337.5a6.117,6.117,0,0,1-.794.092,4.115,4.115,0,0,1-.724-.092l-5.429,15.322c.258-.017.535-.088.8-.088.241,0,.452.07.719.088l5.424-15.322Zm2.153-5.486c.316-.895.123-1.627-.39-1.627-.531,0-1.228.732-1.552,1.627s-.14,1.632.395,1.632c.513,0,1.228-.728,1.548-1.632Z" transform="translate(-261.456 -257.874)" fill="#2cb44e" fill-rule="evenodd"/>
        <path id="Path_3421" data-name="Path 3421" d="M411.785,354.111c.259-.017.531-.088.794-.088s.451.07.719.088l5-14.1h1.9a5.157,5.157,0,0,1,.43-1.219h-1.938c.618-2.916,1.75-6.543,3.644-6.543a1,1,0,0,1,.61.162l.263.32.145-.132a26.1,26.1,0,0,1,1-2.561c-2.548-.509-5.455,4.9-7.012,8.494l-.136.259h-1.3a5.263,5.263,0,0,1-.434,1.219h1.3l-4.99,14.1Z" transform="translate(-257.512 -259.166)" fill="#2cb44e" fill-rule="evenodd"/>
        <path id="Path_3422" data-name="Path 3422" d="M419.986,337.5a6.174,6.174,0,0,1-.785.092,4.166,4.166,0,0,1-.728-.092l-5.429,15.322c.259-.017.531-.088.794-.088s.456.07.732.088l5.416-15.322Zm2.157-5.486c.316-.895.123-1.627-.395-1.627s-1.223.732-1.548,1.627-.14,1.632.39,1.632c.513,0,1.228-.728,1.552-1.632Z" transform="translate(-253.25 -257.874)" fill="#2cb44e" fill-rule="evenodd"/>
        <path id="Path_3423" data-name="Path 3423" d="M425.527,333.287a2.7,2.7,0,0,0-2.535-1.324c-2.824,0-5.92,2.855-7.683,7.823-1.583,4.49-1.127,7.955,2.044,7.955a5.525,5.525,0,0,0,3.469-1.614l.618-1.469-.079-.092c-1.228,1.21-2.254,2.083-3.355,2.083-2.065,0-2.421-2.916-.969-7.021,1.193-3.372,3.39-6.573,5.6-6.573a1.457,1.457,0,0,1,1.421,1.289,4.223,4.223,0,0,1,.136,1.044h.158l1.179-2.1Z" transform="translate(-248.578 -252.529)" fill="#2cb44e"/>
      </g>
      <path id="Path_3424" data-name="Path 3424" d="M373.022,391.324h20.44s-4.574-1.079-1.737-6.341c0,0,5.982-9.731,20.878-23.443a151.621,151.621,0,0,1,17.107-14.256c7.376-5.157,28.1-15.629,31-7.341,0,0,2.408,4.477-6.122,12.77,0,0-10.358,10.2-23.141,12.112,0,0-8.871,1.447-14.463-2.815,0,0,.535,6.17,9.6,9.152,0,0,13.686,4.043,32.153-9.683,0,0,15.712-10.31,18.751-25.412,0,0,2.219-7.924-5.065-11.958,0,0-10.318-6.749-33.981,8.6,0,0-21.738,15.528-38.9,34.889,0,0-18.992,20.834-26.513,23.724Z" transform="translate(-373.021 -284.123)" fill="#380e91"/>
    </g>
  </g>
</svg>
